%FSTAX23Y23*%
%MOIN*%
%SFA1B1*%

%IPPOS*%
%AMD69*
4,1,8,0.017700,-0.008900,0.017700,0.008900,0.013800,0.012800,-0.013800,0.012800,-0.017700,0.008900,-0.017700,-0.008900,-0.013800,-0.012800,0.013800,-0.012800,0.017700,-0.008900,0.0*
1,1,0.007835,0.013800,-0.008900*
1,1,0.007835,0.013800,0.008900*
1,1,0.007835,-0.013800,0.008900*
1,1,0.007835,-0.013800,-0.008900*
%
%ADD19R,0.039370X0.137795*%
%ADD20R,0.020472X0.020472*%
%ADD26R,0.020472X0.020472*%
%ADD27R,0.022539X0.024224*%
%ADD28R,0.082677X0.220472*%
%ADD29R,0.054331X0.017716*%
%ADD30R,0.061024X0.056102*%
%ADD31R,0.074803X0.039370*%
%ADD32R,0.074803X0.070866*%
%ADD33R,0.051181X0.064960*%
%ADD34R,0.035433X0.029527*%
%ADD35R,0.023622X0.018504*%
%ADD36R,0.029527X0.035433*%
%ADD37R,0.021654X0.021654*%
%ADD38R,0.019685X0.023622*%
%ADD44R,0.018433X0.018602*%
%ADD45R,0.014665X0.022539*%
%ADD47R,0.009843X0.011811*%
%ADD48R,0.018602X0.020287*%
%ADD49R,0.039610X0.051504*%
%ADD50R,0.018504X0.023622*%
%ADD53R,0.031972X0.033783*%
%ADD54R,0.023622X0.019685*%
%ADD56R,0.047575X0.039846*%
%ADD58R,0.035433X0.017716*%
%ADD59R,0.021779X0.041464*%
%ADD60R,0.110236X0.106299*%
%ADD61O,0.064960X0.013780*%
%ADD62O,0.013780X0.064960*%
%ADD63R,0.025591X0.025591*%
%ADD64R,0.027559X0.025591*%
%ADD65R,0.033071X0.035433*%
%ADD66R,0.090551X0.066929*%
%ADD67R,0.089764X0.066929*%
%ADD68R,0.029527X0.031496*%
G04~CAMADD=69~8~0.0~0.0~255.9~354.3~39.2~0.0~15~0.0~0.0~0.0~0.0~0~0.0~0.0~0.0~0.0~0~0.0~0.0~0.0~270.0~354.0~256.0*
%ADD69D69*%
%ADD70R,0.035433X0.041339*%
%ADD71R,0.025591X0.025591*%
%ADD72R,0.043307X0.047244*%
%ADD73C,0.098425*%
%ADD74R,0.051181X0.051181*%
%ADD75C,0.051181*%
%ADD76C,0.047244*%
%ADD77C,0.061811*%
%ADD78R,0.061811X0.061811*%
%ADD79R,0.061811X0.061811*%
%ADD80C,0.049212*%
%ADD81R,0.090551X0.090551*%
%ADD82C,0.096457*%
%ADD83C,0.015748*%
%ADD84C,0.018937*%
%ADD85C,0.011811*%
%LNunrelo_end_node_pcb-1*%
%LPD*%
G54D19*
X00049Y-00157D03*
X-00029D03*
X-00108D03*
X-00187D03*
X-00265D03*
X-00344D03*
X-00423D03*
X-00501D03*
Y-00767D03*
X-00423D03*
X-00344D03*
X-00265D03*
X-00187D03*
X-00108D03*
X-00029D03*
X00049D03*
G54D20*
X0033Y00102D03*
X00362D03*
X00078Y00562D03*
X0011D03*
X00279Y01033D03*
X00311D03*
X00202Y01021D03*
X00234D03*
X00155Y00748D03*
X00187D03*
G54D26*
X00108Y00933D03*
Y00964D03*
X-00019Y00311D03*
Y00279D03*
X-00009Y00411D03*
Y00442D03*
X-00492Y0082D03*
Y00852D03*
X00442Y00452D03*
Y00484D03*
G54D27*
X00433Y-00551D03*
Y-00517D03*
G54D28*
X-00344Y00482D03*
Y00108D03*
G54D29*
X00875Y00446D03*
Y00421D03*
Y00395D03*
Y0037D03*
Y00344D03*
G54D30*
X00879Y00493D03*
Y00297D03*
G54D31*
X0098Y00456D03*
G54D32*
X0098Y0035D03*
G54D33*
X0098Y00528D03*
Y00262D03*
G54D34*
X00698Y00242D03*
Y00289D03*
X00511Y00438D03*
Y00486D03*
X-0059Y-00771D03*
Y-00724D03*
G54D35*
X00777Y0028D03*
Y00251D03*
G54D36*
X00149Y-00501D03*
X00196D03*
X-00496Y-00895D03*
X-00448D03*
X-00673Y-0058D03*
X-00625D03*
X00614Y00255D03*
X00566D03*
G54D37*
X-00133Y00836D03*
X-00102D03*
X-00133Y00374D03*
X-00102D03*
G54D38*
X00621Y-00014D03*
X00656D03*
G54D44*
X00019Y00669D03*
X00051D03*
X00346Y00009D03*
X00314D03*
G54D45*
X00578Y00324D03*
X00622D03*
G54D47*
X-00659Y-00727D03*
Y-00749D03*
X-00561Y-00875D03*
Y-00896D03*
G54D48*
X-00629Y-00831D03*
Y-00861D03*
G54D49*
X00138Y-0059D03*
X00195D03*
G54D50*
X-00604Y-00501D03*
X-00576D03*
G54D53*
X00285Y-004D03*
Y-00445D03*
G54D54*
X00177Y-00206D03*
Y-00242D03*
G54D56*
X00257Y-00324D03*
X00194D03*
G54D58*
X00322Y00834D03*
Y00854D03*
Y00874D03*
Y00893D03*
Y00913D03*
Y00933D03*
X00165Y00834D03*
Y00854D03*
Y00874D03*
Y00893D03*
Y00913D03*
Y00933D03*
G54D59*
X00293Y00961D03*
X00273D03*
X00253D03*
X00234D03*
X00214D03*
X00194D03*
X00293Y00806D03*
X00273D03*
X00253D03*
X00234D03*
X00214D03*
X00194D03*
G54D60*
X00244Y00883D03*
G54D61*
X00058Y00442D03*
Y00423D03*
Y00403D03*
Y00383D03*
Y00364D03*
Y00344D03*
Y00324D03*
Y00305D03*
Y00285D03*
Y00265D03*
Y00246D03*
Y00226D03*
X00375D03*
Y00246D03*
Y00265D03*
Y00285D03*
Y00305D03*
Y00324D03*
Y00344D03*
Y00364D03*
Y00383D03*
Y00403D03*
Y00423D03*
Y00442D03*
G54D62*
X00108Y00176D03*
X00127D03*
X00147D03*
X00167D03*
X00187D03*
X00206D03*
X00226D03*
X00246D03*
X00265D03*
X00285D03*
X00305D03*
X00324D03*
Y00493D03*
X00305D03*
X00285D03*
X00265D03*
X00246D03*
X00226D03*
X00206D03*
X00187D03*
X00167D03*
X00147D03*
X00127D03*
X00108D03*
G54D63*
X007Y-00068D03*
X00736D03*
G54D64*
X00361Y00738D03*
X00327D03*
X00249D03*
X00282D03*
G54D65*
X-00098Y00442D03*
X-00138D03*
X-0063Y-00659D03*
X-0059D03*
X-00127Y00314D03*
X-00167D03*
G54D66*
X-00134Y00718D03*
G54D67*
X-00495Y00718D03*
G54D68*
X00767Y0053D03*
Y00493D03*
G54D69*
X00355Y-00588D03*
Y-00551D03*
Y-00513D03*
X00254D03*
Y-00588D03*
G54D70*
X00162Y-00423D03*
X00211D03*
G54D71*
X00255Y-00198D03*
Y-00234D03*
G54D72*
X00433Y-00433D03*
X00377D03*
G54D73*
X00915Y01043D03*
Y-01043D03*
X-00974D03*
Y01043D03*
G54D74*
X00568Y-00482D03*
G54D75*
X00568Y-00561D03*
G54D76*
X00355Y-01053D03*
X00055D03*
X-00144D03*
X-00344D03*
X-00444D03*
X-00244D03*
X-00044D03*
X00155D03*
X00255D03*
X00455D03*
X00555D03*
X00655D03*
X-00875Y-00023D03*
Y00276D03*
Y00476D03*
Y00676D03*
Y00776D03*
Y00576D03*
Y00376D03*
Y00176D03*
Y00076D03*
Y-00123D03*
Y-00223D03*
Y-00323D03*
G54D77*
X00393Y-00095D03*
Y-00195D03*
Y-00295D03*
X00493Y-00095D03*
Y-00195D03*
X00838Y00795D03*
X00738D03*
X00638D03*
G54D78*
X00493Y-00295D03*
G54D79*
X00938Y00795D03*
G54D80*
X00738Y0071D03*
G54D81*
X-0087Y-00625D03*
G54D82*
X-0077Y-00725D03*
X-0097D03*
X-0077Y-00525D03*
X-0097D03*
G54D83*
X00095Y-00555D03*
X00204Y00665D03*
X00244Y00007D03*
X00216Y00346D03*
X-00177Y0011D03*
X-00165Y00039D03*
X00484Y00826D03*
X00555Y00712D03*
X00421Y00007D03*
X00149Y-00047D03*
X-00023Y-00566D03*
X00403Y00794D03*
X-0009Y00562D03*
X-00157Y00531D03*
X00856Y-00039D03*
X00944Y00098D03*
X-00078Y00177D03*
X-00137Y00216D03*
X00049Y00078D03*
X-00009Y00748D03*
X00787Y00147D03*
X00649Y00177D03*
X00895Y00029D03*
X00492Y0061D03*
X00511Y00323D03*
G54D84*
X00108Y00994D03*
X00149Y00562D03*
X00326Y00692D03*
X00098Y00897D03*
X-00181Y0044D03*
X00039Y00562D03*
X00405Y00074D03*
X00299Y0011D03*
X0037Y00846D03*
X00125Y00834D03*
X-00035Y00488D03*
X00566Y00527D03*
X0057Y00452D03*
X-00118Y00885D03*
X00344Y01033D03*
X00177Y01053D03*
X00114Y00748D03*
X00885Y00566D03*
X00775Y0022D03*
X00799Y00586D03*
X0074Y00366D03*
X00118Y-00114D03*
X00724Y-00129D03*
X00738Y-00029D03*
X-00029Y-00253D03*
X-00501Y-00059D03*
X00213Y-00275D03*
X-00196Y-00866D03*
X00255Y-00275D03*
X-00403Y-00895D03*
X00246Y01072D03*
X-00039Y00413D03*
X-00561Y00718D03*
X00118Y00305D03*
X-00049Y00246D03*
G54D85*
X00265Y00905D03*
X00222D03*
Y00862D03*
X00265D03*
M02*