%FSTAX23Y23*%
%MOIN*%
%SFA1B1*%

%IPPOS*%
%ADD91C,0.003937*%
%LNunrelo_end_node_pcb-1*%
%LPD*%
G54D91*
X-00226Y-00482D02*
Y-00442D01*
X-00246Y-00462D02*
X-00206D01*
X00346Y00082D02*
Y00122D01*
X00326Y00102D02*
X00366D01*
X00108Y00929D02*
Y00968D01*
X00088Y00948D02*
X00127D01*
X00074Y00562D02*
X00114D01*
X00094Y00543D02*
Y00582D01*
X00413Y-00534D02*
X00452D01*
X00433Y-00553D02*
Y-00514D01*
X00659Y-00541D02*
Y-00501D01*
X00639Y-00521D02*
X00679D01*
X-00344Y00275D02*
Y00314D01*
X-00364Y00295D02*
X-00324D01*
X00947Y00395D02*
X00986D01*
X00966Y00375D02*
Y00415D01*
X00424Y-00195D02*
X00463D01*
X00443Y-00214D02*
Y-00175D01*
X00679Y00265D02*
X00718D01*
X00698Y00246D02*
Y00285D01*
X00757Y00265D02*
X00797D01*
X00777Y00246D02*
Y00285D01*
X00153Y-00501D02*
X00192D01*
X00173Y-00521D02*
Y-00482D01*
X-00039Y00295D02*
X0D01*
X-00019Y00275D02*
Y00314D01*
X00638Y-00034D02*
Y00004D01*
X00619Y-00014D02*
X00658D01*
X00275Y01033D02*
X00314D01*
X00295Y01013D02*
Y01053D01*
X-00029Y00427D02*
X00009D01*
X-00009Y00407D02*
Y00446D01*
X00218Y01001D02*
Y01041D01*
X00198Y01021D02*
X00238D01*
X-00511Y00836D02*
X-00472D01*
X-00492Y00816D02*
Y00856D01*
X00035Y00649D02*
Y00688D01*
X00015Y00669D02*
X00055D01*
X00171Y00728D02*
Y00767D01*
X00151Y00748D02*
X0019D01*
X00492Y00462D02*
X00531D01*
X00511Y00442D02*
Y00482D01*
X00423Y00468D02*
X00462D01*
X00442Y00448D02*
Y00488D01*
X006Y00305D02*
Y00344D01*
X0058Y00324D02*
X0062D01*
X-00679Y-00738D02*
X-00639D01*
X-00659Y-00757D02*
Y-00718D01*
X-00649Y-00846D02*
X-0061D01*
X-00629Y-00866D02*
Y-00826D01*
X-0058Y-00885D02*
X-00541D01*
X-00561Y-00905D02*
Y-00866D01*
X-00492Y-00895D02*
X-00452D01*
X-00472Y-00915D02*
Y-00875D01*
X-0059Y-00767D02*
Y-00728D01*
X-0061Y-00748D02*
X-0057D01*
X00167Y-0061D02*
Y-0057D01*
X00147Y-0059D02*
X00187D01*
X-00649Y-006D02*
Y-00561D01*
X-00669Y-0058D02*
X-00629D01*
X-0059Y-00521D02*
Y-00482D01*
X-0061Y-00501D02*
X-0057D01*
X0059Y00236D02*
Y00275D01*
X0057Y00255D02*
X0061D01*
X0033Y-00009D02*
Y00029D01*
X00311Y00009D02*
X0035D01*
X00265Y-00423D02*
X00305D01*
X00285Y-00442D02*
Y-00403D01*
X00177Y-00244D02*
Y-00204D01*
X00157Y-00224D02*
X00196D01*
X00226Y-00344D02*
Y-00305D01*
X00206Y-00324D02*
X00246D01*
X0075Y0081D02*
X00825D01*
X00788Y00772D02*
Y00848D01*
X-01045Y-00625D02*
X-01005D01*
X-01025Y-00645D02*
Y-00606D01*
M02*