%FSTAX23Y23*%
%MOIN*%
%SFA1B1*%

%IPPOS*%
%AMD103*
1,1,0.091496,0.000000,0.000000*
1,0,0.071496,0.000000,0.000000*
4,0,4,0.028800,0.035900,-0.035900,-0.028800,-0.028800,-0.035900,0.035900,0.028800,0.028800,0.035900,0.0*
4,0,4,-0.028800,0.035900,0.035900,-0.028800,0.028800,-0.035900,-0.035900,0.028800,-0.028800,0.035900,0.0*
%
%AMD105*
1,1,0.103307,0.000000,0.000000*
1,0,0.083307,0.000000,0.000000*
4,0,4,0.033000,0.040000,-0.040000,-0.033000,-0.033000,-0.040000,0.040000,0.033000,0.033000,0.040000,0.0*
4,0,4,-0.033000,0.040000,0.040000,-0.033000,0.033000,-0.040000,-0.040000,0.033000,-0.033000,0.040000,0.0*
%
%AMD106*
1,1,0.100157,0.000000,0.000000*
1,0,0.080157,0.000000,0.000000*
4,0,4,0.031800,0.038900,-0.038900,-0.031800,-0.031800,-0.038900,0.038900,0.031800,0.031800,0.038900,0.0*
4,0,4,-0.031800,0.038900,0.038900,-0.031800,0.031800,-0.038900,-0.038900,0.031800,-0.031800,0.038900,0.0*
%
%AMD110*
1,1,0.122992,0.000000,0.000000*
1,0,0.102992,0.000000,0.000000*
4,0,4,0.039900,0.047000,-0.047000,-0.039900,-0.039900,-0.047000,0.047000,0.039900,0.039900,0.047000,0.0*
4,0,4,-0.039900,0.047000,0.047000,-0.039900,0.039900,-0.047000,-0.047000,0.039900,-0.039900,0.047000,0.0*
%
%AMD112*
1,1,0.075000,0.000000,0.000000*
1,0,0.055000,0.000000,0.000000*
4,0,4,0.023000,0.030100,-0.030100,-0.023000,-0.023000,-0.030100,0.030100,0.023000,0.023000,0.030100,0.0*
4,0,4,-0.023000,0.030100,0.030100,-0.023000,0.023000,-0.030100,-0.030100,0.023000,-0.023000,0.030100,0.0*
%
%AMD114*
1,1,0.067874,0.000000,0.000000*
1,0,0.047874,0.000000,0.000000*
4,0,4,0.020400,0.027500,-0.027500,-0.020400,-0.020400,-0.027500,0.027500,0.020400,0.020400,0.027500,0.0*
4,0,4,-0.020400,0.027500,0.027500,-0.020400,0.020400,-0.027500,-0.027500,0.020400,-0.020400,0.027500,0.0*
%
%ADD100C,0.040000*%
%ADD101C,0.134488*%
%ADD102C,0.071496*%
G04~CAMADD=103~12~0.0~0.0~0.0~0.0~0.0~0.0~0~915.0~715.0~0.0~45.0~4~100.0~0.0~0.0~0.0~0~0.0~0.0~0.0~0.0~915.0~915.0*
%ADD103D103*%
%ADD104C,0.083307*%
G04~CAMADD=105~12~0.0~0.0~0.0~0.0~0.0~0.0~0~1033.1~833.1~0.0~45.0~4~100.0~0.0~0.0~0.0~0~0.0~0.0~0.0~0.0~1033.1~1033.1*
%ADD105D105*%
G04~CAMADD=106~12~0.0~0.0~0.0~0.0~0.0~0.0~0~1001.6~801.6~0.0~45.0~4~100.0~0.0~0.0~0.0~0~0.0~0.0~0.0~0.0~1001.6~1001.6*
%ADD106D106*%
%ADD107C,0.080157*%
%ADD108C,0.089212*%
%ADD109C,0.099055*%
G04~CAMADD=110~12~0.0~0.0~0.0~0.0~0.0~0.0~0~1229.9~1029.9~0.0~45.0~4~100.0~0.0~0.0~0.0~0~0.0~0.0~0.0~0.0~1229.9~1229.9*
%ADD110D110*%
%ADD111C,0.051811*%
G04~CAMADD=112~12~0.0~0.0~0.0~0.0~0.0~0.0~0~750.0~550.0~0.0~45.0~4~100.0~0.0~0.0~0.0~0~0.0~0.0~0.0~0.0~750.0~750.0*
%ADD112D112*%
%ADD113C,0.055000*%
G04~CAMADD=114~12~0.0~0.0~0.0~0.0~0.0~0.0~0~678.7~478.7~0.0~45.0~4~100.0~0.0~0.0~0.0~0~0.0~0.0~0.0~0.0~678.7~678.7*
%ADD114D114*%
%LNunrelo_end_node_pcb-1*%
%LPD*%
G54D100*
X00983Y-01161D02*
D01*
X00986Y-01161*
X0099Y-0116*
X00993Y-0116*
X00997Y-01159*
X01Y-01158*
X01003Y-01157*
X01006Y-01155*
X01009Y-01153*
X01012Y-01151*
X01015Y-01149*
X01018Y-01147*
X0102Y-01144*
X01022Y-01142*
X01024Y-01139*
X01026Y-01136*
X01028Y-01133*
X01029Y-0113*
X01031Y-01126*
X01031Y-01123*
X01032Y-0112*
X01033Y-01116*
X01033Y-01113*
X01033Y-01111*
Y01111D02*
D01*
X01033Y01114*
X01032Y01118*
X01032Y01121*
X01031Y01125*
X0103Y01128*
X01029Y01131*
X01027Y01134*
X01025Y01137*
X01023Y0114*
X01021Y01143*
X01019Y01146*
X01016Y01148*
X01014Y0115*
X01011Y01152*
X01008Y01154*
X01005Y01156*
X01002Y01157*
X00998Y01158*
X00995Y01159*
X00992Y0116*
X00988Y01161*
X00985Y01161*
X00983Y01161*
X-01042D02*
D01*
X-01046Y01161*
X-01049Y0116*
X-01052Y0116*
X-01056Y01159*
X-01059Y01158*
X-01062Y01157*
X-01065Y01155*
X-01069Y01153*
X-01071Y01151*
X-01074Y01149*
X-01077Y01147*
X-01079Y01144*
X-01081Y01142*
X-01083Y01139*
X-01085Y01136*
X-01087Y01133*
X-01088Y0113*
X-0109Y01126*
X-01091Y01123*
X-01091Y0112*
X-01092Y01116*
X-01092Y01113*
X-01092Y01111*
Y-01111D02*
D01*
X-01092Y-01114*
X-01092Y-01118*
X-01091Y-01121*
X-0109Y-01125*
X-01089Y-01128*
X-01088Y-01131*
X-01086Y-01134*
X-01084Y-01137*
X-01082Y-0114*
X-0108Y-01143*
X-01078Y-01146*
X-01075Y-01148*
X-01073Y-0115*
X-0107Y-01152*
X-01067Y-01154*
X-01064Y-01156*
X-01061Y-01157*
X-01057Y-01158*
X-01054Y-01159*
X-01051Y-0116*
X-01047Y-01161*
X-01044Y-01161*
X-01042Y-01161*
X00983*
X01033Y-01111D02*
Y01111D01*
X-01042Y01161D02*
X00983D01*
X-01092Y-01111D02*
Y01111D01*
G54D101*
X00915Y01043D03*
Y-01043D03*
X-00974D03*
Y01043D03*
G54D102*
X00568Y-00482D03*
G54D103*
X00568Y-00561D03*
G54D104*
X00355Y-01053D03*
X00055D03*
X-00144D03*
X-00444D03*
X-00244D03*
X-00044D03*
X00155D03*
X00255D03*
X00455D03*
X00555D03*
X00655D03*
X-00875Y-00023D03*
Y00276D03*
Y00476D03*
Y00676D03*
Y00776D03*
Y00176D03*
Y00076D03*
Y-00123D03*
Y-00223D03*
Y-00323D03*
G54D105*
X-00344Y-01053D03*
X-00875Y00576D03*
Y00376D03*
G54D106*
X00393Y-00095D03*
X00493D03*
X00638Y00795D03*
G54D107*
X00393Y-00195D03*
Y-00295D03*
X00493Y-00195D03*
Y-00295D03*
X00938Y00795D03*
X00838D03*
X00738D03*
G54D108*
X00738Y0071D03*
G54D109*
X-0087Y-00625D03*
G54D110*
X-0077Y-00725D03*
X-0097D03*
X-0077Y-00525D03*
X-0097D03*
G54D111*
X00095Y-00555D03*
X00204Y00665D03*
X00244Y00007D03*
X00216Y00346D03*
X-00177Y0011D03*
X-00165Y00039D03*
X00484Y00826D03*
X00555Y00712D03*
X00421Y00007D03*
X00149Y-00047D03*
X-00023Y-00566D03*
X00403Y00794D03*
X-0009Y00562D03*
X-00157Y00531D03*
X00856Y-00039D03*
X00944Y00098D03*
X-00078Y00177D03*
X-00137Y00216D03*
X00049Y00078D03*
X-00009Y00748D03*
X00787Y00147D03*
X00649Y00177D03*
X00895Y00029D03*
X00492Y0061D03*
X00511Y00323D03*
G54D112*
X00108Y00994D03*
X00149Y00562D03*
X-00181Y0044D03*
X00299Y0011D03*
X0037Y00846D03*
X00125Y00834D03*
X0057Y00452D03*
X00344Y01033D03*
X00177Y01053D03*
X00114Y00748D03*
X00885Y00566D03*
X00775Y0022D03*
X00118Y-00114D03*
X00738Y-00029D03*
X-00501Y-00059D03*
X00255Y-00275D03*
X-00403Y-00895D03*
X-00039Y00413D03*
X-00561Y00718D03*
X00118Y00305D03*
G54D113*
X00326Y00692D03*
X00098Y00897D03*
X00039Y00562D03*
X00405Y00074D03*
X-00035Y00488D03*
X00566Y00527D03*
X-00118Y00885D03*
X00799Y00586D03*
X0074Y00366D03*
X00724Y-00129D03*
X-00029Y-00253D03*
X00213Y-00275D03*
X-00196Y-00866D03*
X00246Y01072D03*
X-00049Y00246D03*
G54D114*
X00265Y00905D03*
X00222D03*
Y00862D03*
X00265D03*
M02*