%FSTAX23Y23*%
%MOIN*%
%SFA1B1*%

%IPPOS*%
%ADD13C,0.007874*%
%ADD91C,0.003937*%
%LNunrelo_end_node_pcb-1*%
%LPD*%
G54D13*
X00088Y-00777D02*
Y-00147D01*
X-00541Y-00777D02*
X00088D01*
X-00541D02*
Y-00147D01*
X00088*
X00367Y00091D02*
Y00113D01*
X00325D02*
X00367D01*
X00325Y00091D02*
Y00113D01*
Y00091D02*
X00367D01*
X00097Y00928D02*
Y00969D01*
X00119*
Y00928D02*
Y00969D01*
X00097Y00928D02*
X00119D01*
X00073Y00573D02*
X00115D01*
Y00552D02*
Y00573D01*
X00073Y00552D02*
X00115D01*
X00073D02*
Y00573D01*
X00423Y-00514D02*
X00442D01*
X00423Y-00553D02*
Y-00514D01*
Y-00553D02*
X00442D01*
Y-00514*
X00809Y-00645D02*
Y-00397D01*
X00509Y-00645D02*
X00809D01*
X00509D02*
Y-00397D01*
X00809*
X-00249Y00067D02*
Y00522D01*
X-00439Y00067D02*
X-00249D01*
X-00439D02*
Y00522D01*
X-00249*
X01037Y00226D02*
Y00564D01*
X00835Y00236D02*
X0106D01*
Y00554*
X00835D02*
X0106D01*
X00835Y00236D02*
Y00554D01*
X00339Y-00355D02*
X00547D01*
Y-00035*
X00339D02*
X00547D01*
X00339Y-00355D02*
Y-00035D01*
X0068Y003D02*
X00717D01*
X0068Y00231D02*
Y003D01*
Y00231D02*
X00717D01*
Y003*
X00764Y00244D02*
X0079D01*
Y00287*
X00764D02*
X0079D01*
X00764Y00244D02*
Y00287D01*
X00138Y-00483D02*
X00207D01*
Y-0052D02*
Y-00483D01*
X00138Y-0052D02*
X00207D01*
X00138D02*
Y-00483D01*
X-0003Y00274D02*
X-00008D01*
Y00315*
X-0003D02*
X-00008D01*
X-0003Y00274D02*
Y00315D01*
X00659Y-00027D02*
Y-00001D01*
X00618D02*
X00659D01*
X00618Y-00027D02*
Y-00001D01*
Y-00027D02*
X00659D01*
X00274Y01044D02*
X00315D01*
Y01022D02*
Y01044D01*
X00274Y01022D02*
X00315D01*
X00274D02*
Y01044D01*
X-0002Y00447D02*
X0D01*
X-0002Y00406D02*
Y00447D01*
Y00406D02*
X0D01*
Y00447*
X00239Y0101D02*
Y01032D01*
X00197D02*
X00239D01*
X00197Y0101D02*
Y01032D01*
Y0101D02*
X00239D01*
X-00502Y00857D02*
X-00481D01*
X-00502Y00815D02*
Y00857D01*
Y00815D02*
X-00481D01*
Y00857*
X00055Y00659D02*
Y00679D01*
X00015D02*
X00055D01*
X00015Y00659D02*
Y00679D01*
Y00659D02*
X00055D01*
X00191Y00737D02*
Y00758D01*
X0015D02*
X00191D01*
X0015Y00737D02*
Y00758D01*
Y00737D02*
X00191D01*
X00493Y00497D02*
X0053D01*
X00493Y00428D02*
Y00497D01*
Y00428D02*
X0053D01*
Y00497*
X00432Y00489D02*
X00453D01*
X00432Y00447D02*
Y00489D01*
Y00447D02*
X00453D01*
Y00489*
X0062Y00314D02*
Y00334D01*
X0058D02*
X0062D01*
X0058Y00314D02*
Y00334D01*
Y00314D02*
X0062D01*
X-00665Y-0075D02*
X-00652D01*
Y-00725*
X-00665D02*
X-00652D01*
X-00665Y-0075D02*
Y-00725D01*
X-00639Y-00866D02*
X-0062D01*
Y-00826*
X-00639D02*
X-0062D01*
X-00639Y-00866D02*
Y-00826D01*
X-00567Y-00898D02*
X-00554D01*
Y-00873*
X-00567D02*
X-00554D01*
X-00567Y-00898D02*
Y-00873D01*
X-00506Y-00876D02*
X-00437D01*
Y-00914D02*
Y-00876D01*
X-00506Y-00914D02*
X-00437D01*
X-00506D02*
Y-00876D01*
X-00609Y-00782D02*
Y-00713D01*
X-00571*
Y-00782D02*
Y-00713D01*
X-00609Y-00782D02*
X-00571D01*
X00206Y-00615D02*
Y-00565D01*
X00127D02*
X00206D01*
X00127Y-00615D02*
Y-00565D01*
Y-00615D02*
X00206D01*
X-00615Y-00599D02*
Y-00562D01*
X-00684D02*
X-00615D01*
X-00684Y-00599D02*
Y-00562D01*
Y-00599D02*
X-00615D01*
X-00568Y-00514D02*
Y-00489D01*
X-00612D02*
X-00568D01*
X-00612Y-00514D02*
Y-00489D01*
Y-00514D02*
X-00568D01*
X00556Y00237D02*
Y00274D01*
Y00237D02*
X00625D01*
Y00274*
X00556D02*
X00625D01*
X00311Y0D02*
Y00019D01*
Y0D02*
X0035D01*
Y00019*
X00311D02*
X0035D01*
X00269Y-00454D02*
X00301D01*
Y-00391*
X00269D02*
X00301D01*
X00269Y-00454D02*
Y-00391D01*
X00189Y-00245D02*
Y-00203D01*
X00164Y-00245D02*
X00189D01*
X00164D02*
Y-00203D01*
X00189*
X00194Y-0034D02*
Y-00309D01*
Y-0034D02*
X00257D01*
Y-00309*
X00194D02*
X00257D01*
X00583Y00929D02*
X00992D01*
Y00691D02*
Y00929D01*
X00583Y00691D02*
X00992D01*
X00583D02*
Y00929D01*
X-01309Y-00753D02*
X-00742D01*
X-01309D02*
Y-00498D01*
X-00742*
Y-00753D02*
Y-00498D01*
G54D91*
X00133Y00437D02*
D01*
X00133Y00438*
X00133Y00439*
X00133Y00441*
X00133Y00442*
X00132Y00443*
X00132Y00445*
X00131Y00446*
X0013Y00447*
X0013Y00448*
X00129Y00449*
X00128Y0045*
X00127Y00451*
X00126Y00452*
X00125Y00453*
X00124Y00454*
X00122Y00454*
X00121Y00455*
X0012Y00455*
X00118Y00456*
X00117Y00456*
X00116Y00456*
X00114Y00456*
X00113*
X00112Y00456*
X0011Y00456*
X00109Y00456*
X00108Y00455*
X00106Y00455*
X00105Y00454*
X00104Y00454*
X00103Y00453*
X00102Y00452*
X00101Y00451*
X001Y0045*
X00099Y00449*
X00098Y00448*
X00097Y00447*
X00096Y00446*
X00096Y00445*
X00095Y00443*
X00095Y00442*
X00094Y00441*
X00094Y00439*
X00094Y00438*
X00094Y00437*
X00094Y00435*
X00094Y00434*
X00094Y00432*
X00095Y00431*
X00095Y0043*
X00096Y00429*
X00096Y00427*
X00097Y00426*
X00098Y00425*
X00099Y00424*
X001Y00423*
X00101Y00422*
X00102Y00421*
X00103Y0042*
X00104Y00419*
X00105Y00419*
X00106Y00418*
X00108Y00418*
X00109Y00417*
X0011Y00417*
X00112Y00417*
X00113Y00417*
X00114*
X00116Y00417*
X00117Y00417*
X00118Y00417*
X0012Y00418*
X00121Y00418*
X00122Y00419*
X00124Y00419*
X00125Y0042*
X00126Y00421*
X00127Y00422*
X00128Y00423*
X00129Y00424*
X0013Y00425*
X0013Y00426*
X00131Y00427*
X00132Y00429*
X00132Y0043*
X00133Y00431*
X00133Y00432*
X00133Y00434*
X00133Y00435*
X00133Y00437*
X00165Y00805D02*
X00322D01*
Y00962*
X00165D02*
X00322D01*
X00165Y00805D02*
Y00962D01*
X00078Y00196D02*
Y00472D01*
X00354Y00196D02*
Y00472D01*
X00078D02*
X00354D01*
X00078Y00196D02*
X00354D01*
X00705Y-01103D02*
Y-01003D01*
X-00494Y-01103D02*
Y-01003D01*
Y-01103D02*
X00705D01*
X-00494Y-01003D02*
X00705D01*
X-00925Y-00373D02*
X-00825D01*
X-00925Y00826D02*
X-00825D01*
X-00925Y-00373D02*
Y00826D01*
X-00825Y-00373D02*
Y00826D01*
X00697Y-00058D02*
X00739D01*
X00697Y-00079D02*
X00739D01*
X00697D02*
Y-00058D01*
X00739Y-00079D02*
Y-00058D01*
X00365Y00727D02*
Y00749D01*
X00323Y00727D02*
Y00749D01*
Y00727D02*
X00365D01*
X00323Y00749D02*
X00365D01*
X-00139Y0043D02*
X-00096D01*
X-00139Y00455D02*
X-00096D01*
Y0043D02*
Y00455D01*
X-00139Y0043D02*
Y00455D01*
X-00196Y00649D02*
Y00787D01*
X-00433Y00649D02*
Y00787D01*
Y00649D02*
X-00196D01*
X-00433Y00787D02*
X-00196D01*
X-00138Y00847D02*
X-00097D01*
X-00138Y00825D02*
X-00097D01*
X-00138D02*
Y00847D01*
X-00097Y00825D02*
Y00847D01*
X00245Y00727D02*
Y00749D01*
X00286Y00727D02*
Y00749D01*
X00245D02*
X00286D01*
X00245Y00727D02*
X00286D01*
X00778Y00491D02*
Y00532D01*
X00756Y00491D02*
Y00532D01*
X00778*
X00756Y00491D02*
X00778D01*
X-00631Y-00646D02*
X-00588D01*
X-00631Y-00672D02*
X-00588D01*
X-00631D02*
Y-00646D01*
X-00588Y-00672D02*
Y-00646D01*
X-00169Y00302D02*
X-00125D01*
X-00169Y00327D02*
X-00125D01*
Y00302D02*
Y00327D01*
X-00169Y00302D02*
Y00327D01*
X-00138Y00363D02*
Y00384D01*
X-00097Y00363D02*
Y00384D01*
X-00138D02*
X-00097D01*
X-00138Y00363D02*
X-00097D01*
X00339Y-00611D02*
Y-00491D01*
X0027Y-00611D02*
Y-00491D01*
Y-00611D02*
X00339D01*
X0027Y-00491D02*
X00339D01*
X00154Y-00404D02*
X00219D01*
X00154Y-00441D02*
X00219D01*
X00154D02*
Y-00404D01*
X00219Y-00441D02*
Y-00404D01*
X00266Y-00237D02*
Y-00195D01*
X00245Y-00237D02*
Y-00195D01*
X00266*
X00245Y-00237D02*
X00266D01*
X0044Y-00452D02*
Y-00413D01*
X0037Y-00452D02*
Y-00413D01*
Y-00452D02*
X0044D01*
X0037Y-00413D02*
X0044D01*
M02*