%FSTAX23Y23*%
%MOIN*%
%SFA1B1*%

%IPPOS*%
%ADD74R,0.051181X0.051181*%
%ADD75C,0.051181*%
%ADD77C,0.061811*%
%ADD78R,0.061811X0.061811*%
%ADD79R,0.061811X0.061811*%
%ADD80C,0.049212*%
%ADD81R,0.090551X0.090551*%
%ADD82C,0.096457*%
%ADD93C,0.094488*%
%ADD94C,0.062992*%
%ADD95R,0.062992X0.062992*%
%ADD96R,0.062992X0.062992*%
%LNunrelo_end_node_pcb-1*%
%LPD*%
G54D74*
X00568Y-00482D03*
G54D75*
X00568Y-00561D03*
G54D77*
X00393Y-00095D03*
Y-00195D03*
Y-00295D03*
X00493Y-00095D03*
Y-00195D03*
X00838Y00795D03*
X00738D03*
X00638D03*
G54D78*
X00493Y-00295D03*
G54D79*
X00938Y00795D03*
G54D80*
X00738Y0071D03*
G54D81*
X-0087Y-00625D03*
G54D82*
X-0077Y-00725D03*
X-0097D03*
X-0077Y-00525D03*
X-0097D03*
G54D93*
X00915Y01043D03*
Y-01043D03*
X-00974D03*
Y01043D03*
G54D94*
X00355Y-01053D03*
X00055D03*
X-00144D03*
X-00344D03*
X-00244D03*
X-00044D03*
X00155D03*
X00255D03*
X00455D03*
X00555D03*
X00655D03*
X-00875Y-00023D03*
Y00276D03*
Y00476D03*
Y00676D03*
Y00576D03*
Y00376D03*
Y00176D03*
Y00076D03*
Y-00123D03*
Y-00223D03*
Y-00323D03*
G54D95*
X-00444Y-01053D03*
G54D96*
X-00875Y00776D03*
M02*